<svg width="98" height="83" viewBox="0 0 98 83" fill="none" xmlns="http://www.w3.org/2000/svg">
<g filter="url(#filter0_d_109_1894)">
<path d="M31.3158 52.0184C31.3367 52.0288 31.36 52.0335 31.3768 52.0363C31.3961 52.0394 31.4185 52.0417 31.443 52.0434C31.4923 52.0467 31.5563 52.048 31.6331 52.0475C31.787 52.0467 31.9986 52.0389 32.2593 52.0254C32.7809 51.9982 33.5033 51.9472 34.3627 51.8795C36.0818 51.744 38.3517 51.5412 40.6646 51.326C44.5479 50.9647 48.5537 50.5685 50.2794 50.3978C50.6094 50.3651 50.856 50.3407 51.0025 50.3264L51.0028 50.3264C51.0646 50.3201 51.1239 50.3144 51.1805 50.309C51.3225 50.2954 51.4477 50.2834 51.5545 50.2679C51.7037 50.2461 51.8327 50.2156 51.9355 50.1545C52.1575 50.0226 52.2146 49.7774 52.2146 49.3787C52.2146 49.1369 52.134 48.9614 51.9845 48.8475C51.8411 48.7382 51.6488 48.6972 51.4479 48.6867C51.2454 48.6761 51.019 48.696 50.7964 48.7214C50.7276 48.7293 50.6594 48.7376 50.5921 48.7459C50.4382 48.7647 50.2889 48.783 50.1479 48.7935L50.1463 48.7937L32.3647 50.4187C32.3647 50.3763 32.3646 50.3344 32.3646 50.2927C32.3637 49.1314 32.3631 48.2309 32.5609 47.37C32.7708 46.4569 33.2057 45.5836 34.1162 44.4991L34.0397 44.4348L34.1161 44.4993C34.5075 44.0346 35.1511 43.5517 35.8568 43.132C36.5613 42.7131 37.3195 42.3621 37.934 42.1582L37.9344 42.1581C41.7333 40.8793 44.9943 40.619 48.0852 40.619C49.1456 40.619 50.1887 40.6499 51.2276 40.6806C53.2112 40.7392 55.1796 40.7974 57.2247 40.6397L57.2249 40.6397C58.5365 40.5362 59.2748 40.4099 59.9236 40.1896C60.4195 40.0213 60.8625 39.798 61.4663 39.4935C61.6482 39.4018 61.8448 39.3027 62.0618 39.1955L62.0619 39.1955C62.649 38.9045 63.2469 38.5802 63.8535 38.2511C64.2706 38.0249 64.6918 37.7964 65.1166 37.575C66.1635 37.0291 67.2416 36.5204 68.3663 36.1715L68.3664 36.1714C70.7244 35.4373 72.5885 35.6564 74.8297 36.4161C75.5109 36.6477 75.9833 36.8941 76.4228 37.1552C76.5628 37.2383 76.7007 37.3238 76.8417 37.4112C77.1268 37.588 77.4244 37.7724 77.7765 37.9607C77.777 41.0777 77.817 44.0899 77.8571 47.1106L77.8574 47.1383C77.8974 50.1473 77.9373 53.1651 77.9384 56.3049C77.3532 56.1592 76.9415 55.9849 76.5819 55.8243C76.5454 55.808 76.5094 55.7918 76.4736 55.7758C76.1342 55.6232 75.8247 55.484 75.4461 55.4056C74.6072 55.2317 73.4444 55.3573 70.807 56.1914L70.8068 56.1915C69.9444 56.4662 68.009 57.1357 65.6123 57.9648C63.6003 58.6608 61.2633 59.4692 58.9632 60.2509C56.442 61.1077 53.9644 61.9327 52.0046 62.5434C51.0247 62.8488 50.1752 63.1003 49.5149 63.2754C49.1847 63.3629 48.9028 63.4311 48.6761 63.4773C48.4474 63.5239 48.2812 63.5469 48.1793 63.5469C46.3639 63.5469 44.232 63.0525 42.2204 62.4022C40.2108 61.7526 38.3284 60.9496 37.0134 60.337C37.0131 60.3368 37.0128 60.3367 37.0125 60.3365L27.2253 55.5285C27.2249 55.5283 27.2246 55.5281 27.2243 55.528C22.639 53.1469 15.6927 49.0253 11.0817 46.2519L11.0817 46.2519C11.005 46.2058 10.9288 46.16 10.8531 46.1144C10.1377 45.6838 9.46327 45.2779 8.75666 44.902C8.98144 44.0436 9.67718 43.0307 10.626 42.2225C11.6015 41.3915 12.8283 40.7906 14.0556 40.7906C16.855 40.7906 19.3675 41.7066 21.786 42.9234C22.9574 43.5127 24.1048 44.1716 25.2521 44.8304L25.364 44.8946C26.5476 45.5742 27.7318 46.2512 28.9378 46.8456C28.938 46.8457 28.9381 46.8458 28.9383 46.8458L30.8499 47.8042C30.8468 47.8498 30.8413 47.914 30.8339 47.9958C30.831 48.027 30.828 48.0604 30.8247 48.0959C30.8147 48.2043 30.803 48.332 30.791 48.4733C30.7594 48.8484 30.7264 49.3222 30.7215 49.7997C30.7167 50.2762 30.7396 50.7615 30.8219 51.1579C30.863 51.3561 30.9198 51.5364 30.9981 51.6836C31.0762 51.8305 31.1793 51.9509 31.3158 52.0184ZM31.3158 52.0184C31.3158 52.0183 31.3157 52.0183 31.3156 52.0183L31.3603 51.9288L31.3161 52.0185C31.316 52.0185 31.3159 52.0184 31.3158 52.0184ZM6.89926 45.2662H6.9V45.0486V45.0376L6.9006 45.0377C6.92757 44.792 7.02678 44.5036 7.20438 44.1513C7.38233 43.7983 7.64184 43.3756 7.99468 42.8606C9.45815 40.7225 11.5061 39.1119 14.5468 39.1119C15.7788 39.1119 17.5422 39.5605 19.2397 40.1561C20.9394 40.7525 22.5875 41.5016 23.5918 42.1118L23.5919 42.1119C23.9185 42.3111 24.2581 42.494 24.5972 42.6746C24.6289 42.6915 24.6607 42.7084 24.6924 42.7253C24.9988 42.8884 25.3039 43.0507 25.5942 43.2213C25.7556 43.3142 25.9132 43.3923 26.0739 43.4719L26.075 43.4725C26.2345 43.5515 26.3971 43.6321 26.5642 43.7283C26.5645 43.7284 26.5648 43.7286 26.5651 43.7288L31.2378 46.2884C31.403 45.9417 31.5178 45.6754 31.6144 45.4516L31.6147 45.4508L31.6154 45.4492C31.72 45.2066 31.8046 45.0105 31.9087 44.8177C32.1186 44.4286 32.405 44.0582 33.0896 43.3236C33.262 43.1345 33.5098 42.9288 33.737 42.7402C33.8183 42.6727 33.897 42.6074 33.9687 42.5458C36.3121 40.4942 40.3097 39.634 44.5295 39.2859C47.8871 39.009 51.4048 39.0553 54.3738 39.0944C55.1409 39.1045 55.8714 39.1141 56.553 39.1175C58.4093 39.1258 59.8177 38.5931 61.2034 37.8767C61.6537 37.6438 62.1038 37.3901 62.5668 37.1292C63.5235 36.5899 64.5356 36.0195 65.7199 35.5369M6.89926 45.2662L70.998 57.8211C71.2411 57.7397 71.4678 57.6627 71.6803 57.5906C72.2313 57.4035 72.6875 57.2486 73.0902 57.1318C73.6468 56.9704 74.0927 56.8845 74.5327 56.8883C75.4033 56.8956 76.2707 57.2533 77.9385 58.1327C77.9409 58.7652 77.9801 59.2839 78.0198 59.8092L78.0224 59.8432C78.0642 60.3967 78.1057 60.9611 78.1057 61.6822C78.1044 61.9613 78.0888 62.2836 78.0723 62.6257V62.6259C78.0558 62.9671 78.0385 63.3272 78.0339 63.6783C78.0293 64.0294 78.0375 64.3739 78.0726 64.6844C78.1076 64.9938 78.1701 65.2758 78.2776 65.4983L78.285 65.5135L78.297 65.5255C78.332 65.5606 78.382 65.5849 78.4314 65.6033C78.4833 65.6227 78.5463 65.6397 78.6173 65.655C78.7595 65.6857 78.9429 65.7112 79.1523 65.7327C79.5717 65.7759 80.1057 65.8041 80.6457 65.8233C81.186 65.8425 81.7342 65.8528 82.1824 65.86C82.274 65.8615 82.3612 65.8628 82.4433 65.8641C82.7646 65.8691 83.0068 65.8728 83.1185 65.8783C83.4385 65.8954 83.6252 65.9286 83.8123 65.9619C83.8349 65.9659 83.8574 65.9699 83.8802 65.9739C84.0958 66.0115 84.3271 66.0456 84.7569 66.0513C84.7573 66.0513 84.7577 66.0513 84.758 66.0513L89.6818 66.2241C89.6823 66.2242 89.6828 66.2242 89.6834 66.2243C89.854 66.2356 89.9776 66.2497 90.0767 66.261L90.1034 66.2641C90.2057 66.2757 90.2887 66.2845 90.3714 66.2793C90.5396 66.2688 90.6964 66.2011 91.043 66.0361L91.1 66.009V65.9458C91.1 62.2083 91.0584 58.5818 91.0168 54.9632C90.9684 50.7409 90.9201 46.5293 90.9381 42.1642V42.1638C90.9381 41.5645 90.8973 41.1156 90.8554 40.6933C90.8524 40.6627 90.8493 40.6323 90.8463 40.602C90.8075 40.2138 90.7704 39.8426 90.7653 39.3845C90.7653 39.3842 90.7653 39.384 90.7653 39.3838L90.7707 33.4762C90.7713 33.3715 90.7722 33.2711 90.773 33.1752C90.7751 32.9272 90.777 32.7082 90.7732 32.5165C90.7678 32.2509 90.7514 32.0291 90.7068 31.8464C90.6616 31.6618 90.5864 31.5118 90.4604 31.3955C90.3355 31.2802 90.1695 31.2061 89.9576 31.1561C89.5392 31.0574 88.9016 31.0449 87.9474 31.0326C87.8909 31.0318 87.8332 31.0311 87.7743 31.0304C86.8339 31.0185 85.5919 31.0028 83.9499 30.915C83.9499 30.915 83.9498 30.915 83.9497 30.915L78.2115 30.5858L78.1546 30.5825L78.1228 30.6298C77.7732 31.1497 77.6753 31.368 77.6816 31.6767C77.6836 31.7748 77.6963 31.8845 77.7113 32.0149C77.7182 32.0744 77.7256 32.1382 77.7327 32.2072C77.7558 32.4318 77.7779 32.7261 77.7765 33.1405V33.1409V33.147V33.1531V33.1592V33.1653V33.1714V33.1775V33.1837V33.1898V33.1959V33.202V33.2081V33.2142V33.2203V33.2264V33.2326V33.2387V33.2448V33.2509V33.257V33.2631V33.2692V33.2753V33.2815V33.2876V33.2937V33.2998V33.3059V33.312V33.3181V33.3242V33.3303V33.3364V33.3426V33.3487V33.3548V33.3609V33.367V33.3731V33.3792V33.3853V33.3914V33.3975V33.4037V33.4098V33.4159V33.422V33.4281V33.4342V33.4403V33.4464V33.4525V33.4586V33.4647V33.4708V33.4769V33.4831V33.4892V33.4953V33.5014V33.5075V33.5136V33.5197V33.5258V33.5319V33.538V33.5441V33.5502V33.5563V33.5624V33.5685V33.5747V33.5808V33.5869V33.593V33.5991V33.6052V33.6113V33.6174V33.6235V33.6296V33.6357V33.6418V33.6479V33.654V33.6601V33.6662V33.6723V33.6784V33.6845V33.6906V33.6967V33.7028V33.7089V33.7151V33.7212V33.7273V33.7334V33.7395V33.7456V33.7517V33.7578V33.7639V33.77V33.7761V33.7822V33.7883V33.7944V33.8005V33.8066V33.8127V33.8188V33.8249V33.831V33.8371V33.8432V33.8493V33.8554V33.8615V33.8676V33.8737V33.8798V33.8859V33.892V33.8981V33.9042V33.9103V33.9164V33.9225V33.9286V33.9347V33.9408V33.9469V33.953V33.9591V33.9652V33.9713V33.9774V33.9835V33.9896V33.9957V34.0018V34.0079V34.014V34.0201V34.0262V34.0323V34.0384V34.0445V34.0506V34.0567V34.0628V34.0689V34.075V34.0811V34.0872V34.0933V34.0993V34.1054V34.1115V34.1176V34.1237V34.1298V34.1359V34.142V34.1481V34.1542V34.1603V34.1664V34.1725V34.1786V34.1847V34.1908V34.1969V34.203V34.2091V34.2152V34.2213V34.2274V34.2335V34.2396V34.2457V34.2517V34.2578V34.2639V34.27V34.2761V34.2822V34.2883V34.2944V34.3005V34.3066V34.3127V34.3188V34.3249V34.331V34.3371V34.3432V34.3493V34.3554V34.3614V34.3675V34.3736V34.3797V34.3858V34.3919V34.398V34.4041V34.4102V34.4163V34.4224V34.4285V34.4346V34.4407V34.4467V34.4528V34.4589V34.465V34.4711V34.4772V34.4833V34.4894V34.4955V34.5016V34.5077V34.5138V34.5198V34.5259V34.532V34.5381V34.5442V34.5503V34.5564V34.5625V34.5686V34.5747V34.5808V34.5868V34.5929V34.599V34.6051V34.6112V34.6173V34.6234V34.6295V34.6356V34.6417V34.6478V34.6538V34.6599V34.666V34.6721V34.6782V34.6843V34.6904V34.6965V34.7026V34.7087V34.7147V34.7208V34.7269V34.733V34.7391V34.7452V34.7513V34.7574V34.7635V34.7695V34.7756V34.7817V34.7878V34.7939V34.8V34.8061V34.8122V34.8182V34.8243V34.8304V34.8365V34.8426V34.8487V34.8548V34.8609V34.867V34.873V34.8791V34.8852V34.8913V34.8974V34.9035V34.9096V34.9157V34.9217V34.9278V34.9339V34.94V34.9461V34.9522V34.9583V34.9644V34.9704V34.9765V34.9826V34.9887V34.9948V35.0009V35.007V35.013V35.0191V35.0252V35.0313V35.0374V35.0435V35.0496V35.0557V35.0617V35.0678V35.0739V35.08V35.0861V35.0922V35.0983V35.1043V35.1104V35.1165V35.1226V35.1287V35.1348V35.1409V35.1469V35.153V35.1591V35.1652V35.1713V35.1774V35.1835V35.1895V35.1956V35.2017V35.2078V35.2139V35.22V35.226V35.2321V35.2382V35.2443V35.2504V35.2565V35.2626V35.2686V35.2747V35.2808V35.2869V35.293V35.2991V35.3051V35.3112V35.3173V35.3234V35.3295V35.3356V35.3417V35.3477V35.3538V35.3599V35.366V35.3721V35.3782V35.3842V35.3903V35.3964V35.4025V35.4086V35.4147V35.4207V35.4268V35.4329V35.439V35.4451V35.4512V35.4572V35.4633V35.4694V35.4755V35.4816V35.4877V35.4937V35.4998V35.5059V35.512V35.5181V35.5242V35.5302V35.5363V35.5424V35.5485V35.5546V35.5607V35.5667V35.5728V35.5789V35.585V35.5911V35.5972V35.6032V35.6093V35.6154V35.6215V35.6276V35.6337V35.6397V35.6458V35.6519V35.658V35.6641V35.6701V35.6762V35.6823V35.6884V35.6945V35.7006V35.7066V35.7127V35.7188V35.7249V35.731V35.7371V35.7431V35.7492V35.7553V35.7614V35.7675V35.7735V35.7796V35.7857V35.7918V35.7979V35.804V35.81V35.8161V35.8222V35.8283V35.8344V35.8404V35.8465V35.8526V35.8587V35.8648V35.8709V35.8769V35.883V35.8891V35.8952V35.9013V35.9073V35.9134V35.9195V35.9256V35.9317V35.9378V35.9438V35.9499V35.956V35.9621V35.9682V35.9742V35.9803V35.9864V35.9925V35.9986V36.0047V36.0107V36.0168V36.0229V36.029V36.0351V36.0411V36.0472V36.0533V36.0594V36.0655V36.0716V36.0776V36.0837V36.0898V36.0946C75.5222 34.9163 73.743 34.2746 71.9252 34.173C70.0679 34.0693 68.1818 34.5302 65.7199 35.5369M6.89926 45.2662L6.90073 45.2783C6.95838 45.7521 7.35947 45.9958 7.88261 46.249L7.88298 46.2492C8.21986 46.4106 8.39391 46.5158 8.60013 46.6404C8.72052 46.7131 8.85187 46.7925 9.03298 46.8936C9.03303 46.8936 9.03309 46.8936 9.03314 46.8937L30.6303 59.0913L30.6302 59.0914L30.6348 59.0937C33.867 60.7064 37.791 62.5675 41.1533 63.6804C44.4652 64.7774 46.3916 65.1904 48.2734 65.0628C49.9706 64.9477 51.6267 64.3923 54.2237 63.5215C54.4992 63.4291 54.7851 63.3332 55.0829 63.2339L55.0834 63.2337L70.9976 57.8212L6.89926 45.2662ZM65.7199 35.5369C65.7198 35.537 65.7198 35.537 65.7198 35.537L65.7576 35.6295L65.7199 35.5369C65.7199 35.5369 65.7199 35.5369 65.7199 35.5369ZM7 45.2662V45.0486C7.05024 44.591 7.37383 43.9438 8.07718 42.9171C9.52854 40.7967 11.5492 39.2119 14.5468 39.2119C16.9751 39.2119 21.547 40.9864 23.5399 42.1972C23.9 42.4169 24.2751 42.6165 24.6452 42.8135C24.952 42.9768 25.2553 43.1382 25.5438 43.3076C25.7084 43.4025 25.869 43.482 26.0295 43.5615C26.19 43.6411 26.3505 43.7206 26.5152 43.8154L7 45.2662ZM7 45.2662C7.05024 45.6792 7.39588 45.9023 7.92618 46.159L7 45.2662ZM89.5054 60.822C89.546 62.0762 89.5863 63.3229 89.5883 64.6893L84.777 64.3618L84.777 64.3617L84.7732 64.3616C84.1192 64.3423 83.5198 64.3177 82.936 64.2938C81.859 64.2496 80.8347 64.2076 79.6173 64.2054V64.1954V64.1797V64.164V64.1483V64.1326V64.1169V64.1013V64.0856V64.0699V64.0542V64.0385V64.0228V64.0071V63.9914V63.9757V63.96V63.9443V63.9286V63.9129V63.8972V63.8815V63.8658V63.8502V63.8345V63.8188V63.8031V63.7874V63.7717V63.756V63.7403V63.7246V63.7089V63.6932V63.6775V63.6618V63.6461V63.6304V63.6147V63.599V63.5834V63.5677V63.552V63.5363V63.5206V63.5049V63.4892V63.4735V63.4578V63.4421V63.4264V63.4107V63.395V63.3793V63.3636V63.3479V63.3323V63.3166V63.3009V63.2852V63.2695V63.2538V63.2381V63.2224V63.2067V63.191V63.1753V63.1596V63.1439V63.1282V63.1125V63.0968V63.0812V63.0655V63.0498V63.0341V63.0184V63.0027V62.987V62.9713V62.9556V62.9399V62.9242V62.9085V62.8928V62.8771V62.8614V62.8457V62.8301V62.8144V62.7987V62.783V62.7673V62.7516V62.7359V62.7202V62.7045V62.6888V62.6731V62.6574V62.6417V62.626V62.6103V62.5946V62.579V62.5633V62.5476V62.5319V62.5162V62.5005V62.4848V62.4691V62.4534V62.4377V62.422V62.4063V62.3906V62.3749V62.3592V62.3435V62.3279V62.3122V62.2965V62.2808V62.2651V62.2494V62.2337V62.218V62.2023V62.1866V62.1709V62.1552V62.1395V62.1238V62.1081V62.0924V62.0767V62.0611V62.0454V62.0297V62.014V61.9983V61.9826V61.9669V61.9512V61.9355V61.9198V61.9041V61.8884V61.8727V61.857V61.8413V61.8256V61.81V61.7943V61.7786V61.7629V61.7472V61.7315V61.7158V61.7001V61.6844V61.6687V61.653V61.6373V61.6216V61.6059V61.5902V61.5745V61.5589V61.5432V61.5275V61.5118V61.4961V61.4804V61.4647V61.449V61.4333V61.4176V61.4019V61.3862V61.3705V61.3548V61.3391V61.3234V61.3078V61.2921V61.2764V61.2607V61.245V61.2293V61.2136V61.1979V61.1822V61.1665V61.1508V61.1351V61.1194V61.1037V61.088V61.0723V61.0566V61.041V61.0253V61.0096V60.9939V60.9782V60.9625V60.9468V60.9311V60.9154V60.8997V60.884V60.8683V60.8526V60.8369V60.8212V60.8055V60.7899V60.7742V60.7585V60.7428V60.7271V60.7114V60.6957V60.68V60.6643V60.6486V60.6329V60.6172V60.6015V60.5858V60.5701V60.5544V60.5388V60.5231V60.5074V60.4917V60.476V60.4603V60.4446V60.4289V60.4132V60.3975V60.3818V60.3661V60.3504V60.3347V60.319V60.3033V60.2876V60.272V60.2563V60.2406V60.2249V60.2092V60.1935V60.1778V60.1621V60.1464V60.1307V60.115V60.0993V60.0836V60.0679V60.0522V60.0365V60.0209V60.0052V59.9895V59.9738V59.9581V59.9424V59.9267V59.911V59.8953V59.8796V59.8639V59.8482V59.8325V59.8168V59.8011V59.7854V59.7698V59.7541V59.7384V59.7227V59.707V59.6913V59.6756V59.6599V59.6442V59.6285V59.6128V59.5971V59.5814V59.5657V59.55V59.5343V59.5187V59.503V59.4873V59.4716V59.4559V59.4402V59.4245V59.4088V59.3931V59.3774V59.3617V59.346V59.3303V59.3146V59.2989V59.2832V59.2675V59.2519V59.2362V59.2205V59.2048V59.1891V59.1734V59.1577V59.142V59.1263V59.1106V59.0949V59.0792V59.0635V59.0478V59.0321V59.0164V59.0008V58.9851V58.9694V58.9537V58.938V58.9223V58.9066V58.8909V58.8752V58.8595V58.8438V58.8281V58.8124V58.7967V58.781V58.7653V58.7497V58.734V58.7183V58.7026V58.6869V58.6712V58.6555V58.6398V58.6241V58.6084V58.5927V58.577V58.5613V58.5456V58.5299V58.5142V58.4986V58.4829V58.4672V58.4515V58.4358V58.4201V58.4044V58.3887V58.373V58.3573V58.3416V58.3259V58.3102V58.2945V58.2788V58.2631V58.2474V58.2318V58.2161V58.2004V58.1847V58.169V58.1533V58.1376V58.1219V58.1062V58.0905V58.0748V58.0591V58.0434V58.0277V58.012V57.9963V57.9807V57.965V57.9493V57.9336V57.9179V57.9022V57.8865V57.8708V57.8551V57.8394V57.8237V57.808V57.7923V57.7766V57.7609V57.7452V57.7296V57.7139V57.6982V57.6825V57.6668V57.6511V57.6354V57.6197V57.604V57.5883V57.5726V57.5569V57.5412V57.5255V57.5098V57.4941V57.4785V57.4628V57.4471V57.4314V57.4157V57.4V57.3843V57.3686V57.3529V57.3372V57.3215V57.3058V57.2901V57.2744V57.2587V57.243V57.2274V57.2117V57.196V57.1803V57.1646V57.1489V57.1332V57.1175V57.1018V57.0861V57.0704V57.0547V57.039V57.0233V57.0076V56.9919V56.9762V56.9606V56.9449V56.9292V56.9135V56.8978V56.8821V56.8664V56.8507V56.835V56.8193V56.8036V56.7879V56.7722V56.7565V56.7408V56.7251V56.7095V56.6938V56.6781V56.6624V56.6467V56.631V56.6153V56.5996V56.5839V56.5682V56.5525V56.5368V56.5211V56.5054V56.4897V56.474V56.4584V56.4427V56.427V56.4113V56.3956V56.3799V56.3642V56.3485V56.3328V56.3171V56.3014V56.2857V56.27C79.6173 54.8681 79.576 53.5877 79.5344 52.3008L79.5336 52.2764C79.4918 50.981 79.45 49.6782 79.45 48.2348C79.45 45.455 79.4095 42.8052 79.369 40.1659L79.3686 40.1369C79.3287 37.5394 79.2891 34.9517 79.2881 32.2589C80.6163 32.2629 82.0022 32.3457 83.2861 32.4274C83.3853 32.4337 83.4838 32.44 83.5816 32.4462C84.7813 32.5229 85.8804 32.5932 86.736 32.588L86.7365 32.588C87.2741 32.5825 87.622 32.6237 87.9687 32.6667L87.9993 32.6706C88.3159 32.7099 88.6367 32.7498 89.0986 32.7549L89.2592 44.6245C89.2592 44.6248 89.2592 44.625 89.2592 44.6253C89.2592 45.3876 89.3026 46.0474 89.3452 46.6777L89.3479 46.7188C89.3895 47.335 89.4292 47.9235 89.4265 48.558C89.4182 50.6011 89.4193 52.6442 89.4203 54.6871C89.4207 55.3784 89.4211 56.0698 89.4211 56.7611C89.4211 58.2081 89.463 59.5098 89.5048 60.8029L89.5054 60.822Z" fill="#E9AF8F" stroke="#E9AF8F" stroke-width="0.2"/>
<path d="M22.5248 2.57865H75.4779V30.5857H22.5248V2.57865ZM20.8453 1.82025V31.3442C20.8453 31.7794 21.164 32.097 21.6038 32.097H76.3984C76.8381 32.097 77.1574 31.7795 77.1574 31.3442V1.82025C77.1574 1.51186 76.9819 1.27858 76.7432 1.12693C76.506 0.976256 76.1991 0.9 75.9072 0.9H22.0955C21.8036 0.9 21.4967 0.976256 21.2596 1.12693C21.0209 1.27858 20.8453 1.51186 20.8453 1.82025Z" fill="#E9AF8F" stroke="#E9AF8F" stroke-width="0.2"/>
<path d="M26.6626 7.79398L26.6023 7.80824L26.5882 7.86852C26.5358 8.09249 26.4952 8.4797 26.4632 8.98416C26.431 9.49094 26.4072 10.1228 26.3899 10.8402C26.3553 12.2751 26.347 14.0551 26.3512 15.8668C26.3561 17.9995 26.3784 20.1719 26.396 21.881C26.4083 23.0798 26.4182 24.0507 26.4182 24.6202C26.4182 24.7832 26.469 24.9151 26.562 25.0211C26.6525 25.1243 26.7778 25.1969 26.9174 25.2546C27.0573 25.3123 27.2198 25.3582 27.3907 25.4031C27.4332 25.4143 27.4762 25.4254 27.5197 25.4366C27.6532 25.4711 27.7914 25.5067 27.9327 25.5488C28.3063 25.6603 28.6878 25.8133 29.0108 26.0898C29.3319 26.3646 29.6015 26.7669 29.7422 27.3877L29.7422 27.3878C29.768 27.5009 29.7846 27.6233 29.802 27.7515C29.8055 27.7768 29.8089 27.8023 29.8125 27.8281C29.8337 27.981 29.8587 28.1401 29.9049 28.2829C29.9513 28.4261 30.0216 28.5615 30.1393 28.6606C30.2587 28.7613 30.4166 28.8159 30.6209 28.8159H66.7152C67.1326 28.8159 67.3981 28.7333 67.5659 28.5618C67.7306 28.3934 67.7807 28.1581 67.8188 27.9138C67.8256 27.8701 67.8321 27.8253 67.8388 27.7796C67.9076 27.3066 67.9909 26.7339 68.5778 26.1473C69.2259 25.4994 69.9355 25.4311 70.5069 25.3832L70.5296 25.3813C70.6636 25.37 70.7925 25.3593 70.9088 25.3412C71.0316 25.3221 71.1477 25.2938 71.2475 25.244C71.3493 25.1933 71.4344 25.1199 71.4925 25.0133C71.5499 24.9082 71.5769 24.7782 71.5769 24.6202C71.5769 24.0507 71.5869 23.0798 71.5992 21.8811C71.6167 20.1719 71.639 17.9995 71.644 15.8668C71.6482 14.0551 71.6398 12.2751 71.6053 10.8402C71.588 10.1228 71.5641 9.49094 71.532 8.98416C71.5 8.4797 71.4593 8.09249 71.407 7.86852L71.3928 7.80815L71.3325 7.79395C71.173 7.75643 70.9658 7.73298 70.739 7.7073C70.6525 7.6975 70.563 7.68737 70.4722 7.67601C70.1377 7.63415 69.7725 7.57464 69.4216 7.45421C69.0712 7.33398 68.738 7.15399 68.4655 6.87296C68.1938 6.59268 67.9778 6.20708 67.8681 5.66769C67.8424 5.53675 67.8266 5.40879 67.8113 5.28402C67.808 5.25744 67.8047 5.23101 67.8014 5.20472C67.7828 5.05796 67.7617 4.91369 67.7198 4.78844C67.6773 4.66147 67.6111 4.54617 67.4973 4.46426C67.3838 4.38261 67.2352 4.34281 67.0445 4.34281H30.6209C30.3671 4.34281 30.1888 4.4602 30.0603 4.64008C29.9363 4.81374 29.8569 5.04782 29.7891 5.29137C29.7629 5.38553 29.7385 5.48052 29.7141 5.57587C29.6733 5.73479 29.6323 5.89471 29.582 6.05343C29.5026 6.30419 29.4051 6.53359 29.2639 6.71357L29.2637 6.71377C28.9524 7.1128 28.5959 7.31375 28.172 7.44939C27.9583 7.51776 27.728 7.56937 27.4762 7.62134C27.4173 7.63349 27.3572 7.64566 27.2959 7.65807C27.0966 7.69847 26.885 7.74135 26.6626 7.79398ZM27.9358 23.8708V9.26578C28.1303 9.17443 28.3261 9.09322 28.5242 9.01106C28.6453 8.96083 28.7673 8.91025 28.8903 8.85679C29.2303 8.70905 29.5693 8.54274 29.8869 8.31103C30.5143 7.85324 31.0448 7.14956 31.359 5.85969H66.3071C66.5677 6.9247 66.9717 7.65756 67.5857 8.18673C68.197 8.71368 69.0064 9.02967 70.0594 9.28169V23.863C68.0485 23.9136 66.721 25.489 66.3072 27.1428H31.3433C31.3022 27.0547 31.2586 26.9554 31.2114 26.8478C30.7686 25.839 30.0016 24.0917 27.9358 23.8708Z" fill="#E9AF8F" stroke="#E9AF8F" stroke-width="0.2"/>
<path d="M56.0778 13.0668L56.0778 13.0669C58.7368 18.7744 54.2492 24.3525 49.6596 24.3525C48.2988 24.3525 47.1605 24.248 46.126 23.8886C45.0934 23.53 44.1579 22.9152 43.2073 21.8849C38.5988 16.8869 42.1169 8.64392 49.0005 8.64392C52.06 8.64392 54.8886 10.5132 56.0778 13.0668ZM55.5962 23.341L55.5962 23.341C60.2736 18.7613 59.003 11.0974 53.3174 8.12602L53.3173 8.126C47.0719 4.86629 39.5504 9.73479 39.5504 16.088C39.5504 25.5005 49.9322 28.8844 55.5962 23.341Z" fill="#E9AF8F" stroke="#E9AF8F" stroke-width="0.2"/>
<path d="M33.3571 9.0353C33.3571 8.67047 33.4984 8.40346 33.7059 8.22621C33.9155 8.04714 34.1985 7.95513 34.4853 7.95513C34.7721 7.95513 35.0551 8.04714 35.2647 8.22621C35.4723 8.40346 35.6135 8.67047 35.6135 9.0353C35.6135 9.44995 35.4694 9.75134 35.2609 9.9491C35.051 10.1481 34.7695 10.2483 34.4857 10.2473C34.2018 10.2463 33.92 10.1442 33.7098 9.94448C33.501 9.74598 33.3571 9.44549 33.3571 9.0353ZM34.4019 11.7635C35.3822 11.7635 36.099 11.4261 36.5652 10.9101C37.0299 10.3959 37.2377 9.71318 37.2189 9.03536C37.1815 7.68356 36.2366 6.31272 34.5693 6.31272C33.6618 6.31272 32.9682 6.65186 32.4982 7.16566C32.0298 7.67775 31.788 8.35806 31.7711 9.03563C31.7542 9.7131 31.9619 10.3945 32.4014 10.9081C32.8426 11.4237 33.5118 11.7635 34.4019 11.7635Z" fill="#E9AF8F" stroke="#E9AF8F" stroke-width="0.2"/>
<path d="M62.3965 9.0353C62.3965 8.71856 62.4845 8.48944 62.6171 8.32726C62.7504 8.16433 62.9351 8.06119 63.1411 8.00851C63.559 7.9016 64.0389 8.00826 64.2875 8.20898C64.5331 8.40951 64.6583 8.72869 64.6616 9.05656C64.6649 9.38491 64.5458 9.70681 64.3226 9.90989C63.9675 10.2311 63.4836 10.3108 63.0916 10.1631C62.7052 10.0175 62.3965 9.64627 62.3965 9.0353ZM63.4407 11.7635C64.4278 11.7635 65.1435 11.4262 65.6052 10.9097C66.0653 10.395 66.2645 9.71195 66.2389 9.03436C66.1879 7.68424 65.237 6.31272 63.6081 6.31272C62.6979 6.31272 62.002 6.65177 61.5301 7.16551C61.0598 7.67757 60.8167 8.3579 60.7994 9.03558C60.7822 9.71316 60.9905 10.3947 61.4317 10.9083C61.8746 11.4239 62.5466 11.7635 63.4407 11.7635Z" fill="#E9AF8F" stroke="#E9AF8F" stroke-width="0.2"/>
<path d="M60.7995 23.7114L60.7994 23.7117C60.6908 24.3895 60.9389 25.1307 61.3719 25.6999C61.8045 26.2687 62.4366 26.6845 63.1142 26.6845H63.9346C65.187 26.6845 65.9922 25.6519 66.177 24.5122C66.3623 23.3698 65.9342 22.0745 64.6787 21.5212C63.7399 21.1067 62.8413 21.2014 62.1404 21.6307C61.4415 22.0587 60.9461 22.8148 60.7995 23.7114ZM62.3937 23.9619C62.3937 23.6062 62.5343 23.3456 62.7416 23.1723C62.9512 22.9971 63.2344 22.9068 63.5216 22.9068C63.8089 22.9068 64.0921 22.9971 64.3017 23.1723C64.509 23.3456 64.6495 23.6062 64.6495 23.9619C64.6495 24.3765 64.5055 24.6775 64.2971 24.8748C64.0873 25.0734 63.8059 25.1731 63.5221 25.1718C63.2382 25.1705 62.9564 25.0682 62.7463 24.8687C62.5375 24.6704 62.3937 24.3706 62.3937 23.9619Z" fill="#E9AF8F" stroke="#E9AF8F" stroke-width="0.2"/>
<path d="M31.7585 23.7111L31.7584 23.7114C31.6498 24.3891 31.8979 25.1303 32.3302 25.6995C32.762 26.2682 33.3928 26.6842 34.0677 26.6842H34.8887C35.5487 26.6842 36.1652 26.2859 36.5963 25.7423C37.0277 25.1984 37.2885 24.491 37.221 23.8452C37.0535 22.2376 35.8299 21.3348 34.5782 21.2705C33.3225 21.2059 32.0406 21.9845 31.7585 23.7111ZM33.3527 23.9615C33.3527 23.6059 33.4933 23.3453 33.7007 23.1719C33.9103 22.9967 34.1936 22.9065 34.4809 22.9065C34.7682 22.9065 35.0515 22.9967 35.2611 23.1719C35.4685 23.3453 35.6091 23.6059 35.6091 23.9615C35.6091 24.3762 35.465 24.6772 35.2565 24.8745C35.0467 25.073 34.7653 25.1727 34.4813 25.1714C34.1974 25.1701 33.9155 25.0679 33.7054 24.8683C33.4966 24.67 33.3527 24.3702 33.3527 23.9615Z" fill="#E9AF8F" stroke="#E9AF8F" stroke-width="0.2"/>
</g>
<defs>
<filter id="filter0_d_109_1894" x="0.799805" y="0.799988" width="96.4004" height="81.5808" filterUnits="userSpaceOnUse" color-interpolation-filters="sRGB">
<feFlood flood-opacity="0" result="BackgroundImageFix"/>
<feColorMatrix in="SourceAlpha" type="matrix" values="0 0 0 0 0 0 0 0 0 0 0 0 0 0 0 0 0 0 127 0" result="hardAlpha"/>
<feOffset dy="10"/>
<feGaussianBlur stdDeviation="3"/>
<feComposite in2="hardAlpha" operator="out"/>
<feColorMatrix type="matrix" values="0 0 0 0 0 0 0 0 0 0 0 0 0 0 0 0 0 0 0.1 0"/>
<feBlend mode="normal" in2="BackgroundImageFix" result="effect1_dropShadow_109_1894"/>
<feBlend mode="normal" in="SourceGraphic" in2="effect1_dropShadow_109_1894" result="shape"/>
</filter>
</defs>
</svg>
