<svg width="68" height="71" viewBox="0 0 68 71" fill="none" xmlns="http://www.w3.org/2000/svg">
<path fill-rule="evenodd" clip-rule="evenodd" d="M35.4166 67.071V32.7393L42.3823 29.6132C43.4502 29.1145 48.8867 26.603 49.5834 26.5451V60.8772C48.8844 61.0399 48.5186 61.3561 47.8637 61.636C47.191 61.9239 46.7938 62.1252 46.1439 62.3949L39.0179 65.5378C38.0638 65.9831 36.3644 66.8503 35.4166 67.071ZM18.4165 26.5451C19.1057 26.6027 21.1373 27.662 21.9335 27.9858L32.5834 32.7393V67.071C32.124 66.964 31.2671 66.5635 30.8155 66.3602L18.4165 60.8772V26.5451ZM52.4165 59.4615V25.1294C53.0263 24.9875 53.4903 24.6683 54.0352 24.4466C54.6597 24.192 55.074 23.9644 55.629 23.7385L65.1665 19.4665V53.9755L55.7065 58.1477C54.9023 58.4817 53.1505 59.4003 52.4165 59.4615ZM2.83343 19.4665C3.77868 19.9662 4.95103 20.482 5.99615 20.9069L12.371 23.7385C12.926 23.9644 13.3403 24.192 13.9648 24.4466C14.5097 24.6683 14.9737 24.9875 15.5834 25.1294V59.4615C14.8817 59.4029 7.37841 55.9027 6.07161 55.3404L2.83343 53.9755V19.4665ZM20.7187 24.0675C21.3891 24.0119 27.7586 21.1348 28.9669 20.6306C32.7459 19.0535 30.8053 19.4665 36.1248 19.4665C36.7537 19.4665 42.9393 22.3443 44.3457 22.9312C45.0599 23.2293 46.632 24.0135 47.2813 24.0675C46.9029 24.5837 46.4464 24.5896 45.8054 24.8936L34 30.0845C33.9951 30.0845 21.1669 24.6789 20.7187 24.0675ZM42.323 18.9356L46.1455 18.1547C47.4784 17.8882 48.6237 17.6336 49.83 17.2354C51.0419 16.8352 52.0494 16.4004 53.1242 15.9261C54.2273 15.4393 55.0819 14.744 55.9583 14.1574C56.4994 14.4436 57.0538 14.6287 57.6698 14.9245L62.8647 17.1659C62.5275 17.6257 52.2142 22.1249 51.4555 22.4204C50.6058 22.7507 49.152 21.8206 47.5749 21.1197L42.323 18.9356ZM5.13559 17.1659L12.0417 14.1574C12.9181 14.744 13.7727 15.4393 14.8758 15.9261C15.9506 16.4004 16.9581 16.8352 18.17 17.2354C20.1436 17.8872 25.2785 18.683 25.677 18.9356L17.8322 22.2583C16.592 22.8116 17.1312 22.59 15.3313 21.842C14.8162 21.6279 5.53043 17.7047 5.13559 17.1659ZM36.1248 16.4581C36.2385 15.0928 39.0067 11.0307 40.0729 9.78532C49.8712 -1.65575 56.6666 3.70939 56.6666 7.60948C56.6666 8.42896 56.1076 9.69638 55.753 10.2359C54.4402 12.2319 51.0893 13.7572 48.8349 14.4713C46.2583 15.2871 38.9467 16.4581 36.1248 16.4581ZM11.3334 7.60948C11.3334 6.2472 12.2652 4.85428 13.0727 4.21563C13.5041 3.8744 14.0786 3.54174 14.6392 3.3036C17.9106 1.91464 21.9032 4.0964 24.208 6.06901C25.1955 6.91385 26.1842 7.73498 26.9917 8.77349C27.318 9.19377 27.52 9.32749 27.8285 9.70692C28.9593 11.0979 31.7433 14.8781 31.8752 16.4581L25.2963 15.7769C20.9817 15.0302 15.0798 14.021 12.3407 10.3192C11.8595 9.66938 11.3334 8.64799 11.3334 7.60948ZM29.0417 6.54792C30.1811 6.28244 33.2838 4.49988 34 4.49988C34.7162 4.49988 37.8189 6.28244 38.9583 6.54792C38.5611 7.14046 38.1406 7.56568 37.6923 8.11408C36.7988 9.2076 34.4334 12.527 34.177 13.6264H33.823C33.2983 11.3762 29.9131 7.84828 29.0417 6.54792ZM8.5 7.07853C8.5 10.9108 9.27188 10.0281 9.73956 12.0339L4.66363 14.217C3.28201 14.8619 0 15.9913 0 16.989V55.2143C0 55.9461 1.03391 56.3246 1.64298 56.5808C2.38851 56.8947 3.09646 57.2185 3.8367 57.5739C9.54644 60.3146 17.0096 63.2921 23.0805 66.1267C24.9506 67.0002 33.3675 70.7873 34 70.7873C34.8282 70.7873 45.2217 65.9383 47.0018 65.1992C48.4902 64.5813 49.8603 63.9841 51.295 63.2954C55.1534 61.4434 60.1038 59.4701 64.1636 57.5742C65.4309 56.9823 68 56.1872 68 55.2143V16.989C68 16.2245 66.6039 15.6527 66.0274 15.4209L58.2604 12.0339C58.7281 10.0281 59.5 10.9108 59.5 7.07853C59.5 3.29405 55.3976 0 51.5313 0C47.6837 0 44.6657 1.45089 42.1997 3.59444C41.0782 4.56971 41.7835 4.68796 38.4299 3.1824C33.4341 0.939373 34.6855 0.793454 29.6903 3.12574C28.959 3.46763 28.257 3.77526 27.5962 4.05852C26.6776 4.45245 26.8312 4.45475 25.7989 3.59542C17.0887 -3.65702 8.5 1.38995 8.5 7.07853Z" fill="url(#paint0_linear_119_695)"/>
<defs>
<linearGradient id="paint0_linear_119_695" x1="0" y1="35.922" x2="68" y2="35.922" gradientUnits="userSpaceOnUse">
<stop stop-color="#E9C88F"/>
<stop offset="1" stop-color="#E9AF8F"/>
</linearGradient>
</defs>
</svg>
