<svg width="91" height="80" viewBox="0 0 91 80" fill="none" xmlns="http://www.w3.org/2000/svg">
<path d="M18.4926 73.2482L20.5767 67.8558L22.6416 73.2467L18.4926 73.2482ZM22.2401 65.6588C22.0871 65.2848 21.8636 64.9932 21.5547 64.8342C21.2705 64.6982 20.9592 64.6287 20.6443 64.631C20.2016 64.631 19.7692 64.7193 19.4383 64.8356C19.3622 64.8691 19.3021 64.9309 19.2706 65.0079L13.8436 78.5802C13.8249 78.6258 13.8178 78.6754 13.8229 78.7245C13.828 78.7736 13.8451 78.8206 13.8728 78.8614C13.9005 78.9023 13.9378 78.9356 13.9815 78.9585C14.0251 78.9813 14.0738 78.993 14.123 78.9925H16.1085C16.2321 78.9925 16.3409 78.9189 16.388 78.8011L17.7631 75.3112H23.3931L24.8168 78.8055C24.8391 78.8603 24.8771 78.9073 24.9261 78.9406C24.975 78.9739 25.0327 78.9919 25.0918 78.9925H27.1259C27.1756 78.9929 27.2246 78.9807 27.2683 78.957C27.312 78.9333 27.349 78.8989 27.3759 78.857C27.4024 78.8164 27.4184 78.7699 27.4225 78.7216C27.4266 78.6733 27.4187 78.6247 27.3994 78.5802L22.2401 65.6588ZM77.4914 76.8514H72.1159V72.6282H76.884C76.9237 72.6289 76.9631 72.6214 76.9998 72.6062C77.0365 72.591 77.0697 72.5685 77.0973 72.5399C77.126 72.5114 77.1487 72.4774 77.1641 72.44C77.1796 72.4026 77.1873 72.3624 77.187 72.322V70.7464C77.1872 70.7068 77.1794 70.6675 77.1639 70.6311C77.1485 70.5946 77.1258 70.5617 77.0973 70.5343C77.0694 70.5061 77.0362 70.4837 76.9996 70.4686C76.9629 70.4534 76.9237 70.4457 76.884 70.446H72.1144V66.8338H77.1767C77.7356 66.8338 78.1783 66.7352 78.4665 66.4215C78.7158 66.1505 78.8498 65.7929 78.8401 65.4246V65.2111C78.8401 64.8636 78.6783 64.6913 78.4974 64.6913H69.8686C69.7905 64.6939 69.7161 64.7254 69.6597 64.7797C69.6035 64.8365 69.5718 64.9132 69.5715 64.9932V78.6921C69.5715 78.7731 69.6009 78.8452 69.6597 78.9086C69.7156 78.963 69.7906 78.9932 69.8686 78.9925H78.8563C78.9338 78.9929 79.0083 78.9628 79.0637 78.9086C79.0919 78.8801 79.1143 78.8463 79.1295 78.8092C79.1446 78.772 79.1522 78.7322 79.1519 78.6921V78.2592C79.1605 78.0734 79.1298 77.888 79.0619 77.7149C78.994 77.5418 78.8904 77.3851 78.7578 77.2549C78.4533 76.9575 78.018 76.8514 77.49 76.8514M65.4078 76.8514H60.0323V72.6282H64.8048C64.8439 72.6289 64.8826 72.6214 64.9186 72.6062C64.9546 72.591 64.9869 72.5684 65.0137 72.5399C65.0431 72.5119 65.0663 72.4781 65.0818 72.4405C65.0972 72.4029 65.1046 72.3626 65.1034 72.322V70.7464C65.1034 70.6668 65.074 70.5844 65.0137 70.5343C64.9865 70.5063 64.9541 70.4841 64.9182 70.4689C64.8823 70.4538 64.8438 70.4459 64.8048 70.446H60.0323V66.8338H65.0916C65.6505 66.8338 66.0917 66.7352 66.3829 66.4215C66.6344 66.1519 66.7687 65.7934 66.7565 65.4246V65.2111C66.7565 64.868 66.5903 64.6913 66.4079 64.6913H57.7864C57.7074 64.6939 57.6321 64.7253 57.5746 64.7797C57.5182 64.8365 57.4861 64.9131 57.4849 64.9932V78.6921C57.4868 78.7729 57.5188 78.8501 57.5746 78.9086C57.6317 78.963 57.7076 78.9932 57.7864 78.9925H66.7741C66.8123 78.9929 66.8502 78.9857 66.8855 78.9713C66.9209 78.9569 66.953 78.9356 66.98 78.9086C67.0354 78.8495 67.0682 78.7729 67.0727 78.6921V78.2592C67.0773 78.0734 67.0443 77.8886 66.9755 77.716C66.9067 77.5434 66.8037 77.3865 66.6727 77.2549C66.3697 76.9575 65.9373 76.8514 65.4078 76.8514ZM11.2669 64.9196C11.1111 64.8104 10.9359 64.7324 10.7506 64.6899C10.5879 64.6503 10.421 64.6305 10.2535 64.631C9.75493 64.631 9.41666 64.6442 9.41666 64.9991V75.0123L2.72478 65.4335C2.56988 65.1818 2.35577 64.972 2.10118 64.8224C1.84086 64.681 1.5423 64.631 1.18344 64.631C0.703979 64.631 0.340705 64.7119 0.225987 64.7473C0.164087 64.7669 0.110179 64.8061 0.0722846 64.8589C0.0343899 64.9117 0.0145339 64.9753 0.0156713 65.0403V78.6906C0.0156713 78.7731 0.0450861 78.8452 0.0980329 78.9086C0.126307 78.9359 0.159702 78.9574 0.196299 78.9718C0.232896 78.9862 0.271975 78.9932 0.311291 78.9925H2.12325C2.20155 78.9928 2.27692 78.9627 2.33356 78.9086C2.38717 78.849 2.41792 78.7723 2.42034 78.6921V69.0014L9.47402 78.8703C9.50294 78.9084 9.54031 78.9393 9.58319 78.9605C9.62607 78.9817 9.67328 78.9927 9.7211 78.9925H11.5301C11.6096 78.9923 11.6862 78.9623 11.7448 78.9086C11.7959 78.8475 11.8258 78.7716 11.8301 78.6921V66.2242C11.8301 65.9194 11.7831 65.6544 11.6728 65.4232C11.5826 65.223 11.4429 65.0506 11.2669 64.9196ZM40.6964 78.4079L34.6664 71.3368L40.2567 65.6175C40.2886 65.5861 40.3129 65.5477 40.3274 65.5052C40.342 65.4628 40.3464 65.4176 40.3405 65.3731C40.3366 65.3268 40.3221 65.282 40.2981 65.2421C40.2741 65.2023 40.2413 65.1685 40.2022 65.1434C39.9111 64.9903 39.6075 64.8623 39.2948 64.7605C39.1192 64.7021 38.9356 64.6713 38.7506 64.6692C38.4829 64.6692 38.227 64.7281 38.0005 64.8489C37.7711 64.9623 37.5446 65.1463 37.2902 65.3878L32.0558 70.7478V66.236C32.0558 65.9121 32.0073 65.6323 31.894 65.3878C31.797 65.1761 31.647 64.993 31.4587 64.8563C31.2944 64.7404 31.1098 64.6564 30.9145 64.6089C30.7441 64.5706 30.57 64.5508 30.3953 64.55C29.8629 64.55 29.5099 64.5662 29.5099 64.9402V78.6921C29.5091 78.732 29.5164 78.7717 29.5314 78.8087C29.5464 78.8457 29.5687 78.8793 29.597 78.9074C29.6254 78.9355 29.6591 78.9575 29.6962 78.9721C29.7334 78.9868 29.773 78.9937 29.8129 78.9925H31.7543C31.7934 78.9933 31.8323 78.9863 31.8686 78.9719C31.905 78.9575 31.9381 78.9359 31.9661 78.9086C32.0205 78.8492 32.0523 78.7726 32.0558 78.6921V72.076L37.3637 78.2975C37.6049 78.5831 37.8726 78.7952 38.1579 78.9454C38.4594 79.0926 38.8227 79.1589 39.2433 79.1589C39.7654 79.1589 40.3802 78.9704 40.5729 78.8938C40.6195 78.8773 40.6611 78.8489 40.6936 78.8115C40.7261 78.7741 40.7483 78.7289 40.7582 78.6803C40.7706 78.6333 40.7714 78.584 40.7607 78.5365C40.7499 78.4891 40.7279 78.445 40.6964 78.4079ZM54.7846 66.236C54.7846 65.9121 54.7361 65.6323 54.6229 65.3878C54.527 65.1762 54.378 64.9931 54.1905 64.8563C54.0247 64.741 53.8393 64.6572 53.6434 64.6089C53.4729 64.5708 53.2988 64.551 53.1242 64.55C52.5962 64.55 52.2417 64.5662 52.2417 64.9402V70.4813H45.7322V66.236C45.7322 65.9121 45.6881 65.6323 45.5734 65.3878C45.476 65.178 45.3285 64.9954 45.1439 64.8563C44.9768 64.7406 44.7899 64.6567 44.5924 64.6089C44.4235 64.5705 44.2509 64.5508 44.0776 64.55C43.5482 64.55 43.1923 64.5662 43.1923 64.9402V78.6921C43.1923 78.7731 43.2217 78.8452 43.2805 78.9086C43.3359 78.9619 43.4096 78.9919 43.4864 78.9925H45.4351C45.4734 78.9933 45.5113 78.9862 45.5467 78.9718C45.5821 78.9574 45.6142 78.9358 45.641 78.9086C45.6974 78.8504 45.73 78.7731 45.7322 78.6921V72.6474H52.2417V78.6921C52.2417 78.7731 52.2726 78.8452 52.3241 78.9086C52.3829 78.9645 52.4638 78.9925 52.5388 78.9925H54.4846C54.523 78.993 54.5612 78.9859 54.5968 78.9715C54.6324 78.9571 54.6648 78.9357 54.692 78.9086C54.7211 78.8805 54.7444 78.8469 54.7603 78.8097C54.7762 78.7726 54.7845 78.7326 54.7846 78.6921V66.236ZM90.3104 77.2358C90.0045 76.9427 89.578 76.8293 89.0632 76.8293H84.1804V66.2183C84.1804 65.8944 84.1333 65.6146 84.0157 65.3731C83.9222 65.1588 83.7722 64.974 83.5818 64.8386C83.4188 64.7217 83.2344 64.6381 83.0391 64.5927C82.8677 64.5542 82.6926 64.5339 82.517 64.5323C81.989 64.5323 81.6316 64.547 81.6316 64.9225V78.6906C81.6316 78.7731 81.6713 78.8526 81.7228 78.9086C81.7808 78.9632 81.8578 78.9933 81.9375 78.9925H90.3825C90.4618 78.9934 90.5383 78.9633 90.5958 78.9086C90.6492 78.849 90.6794 78.7721 90.6811 78.6921V78.2209C90.6887 78.0402 90.6599 77.8597 90.5962 77.6905C90.5325 77.5212 90.4353 77.3665 90.3104 77.2358ZM43.3687 34.4471C43.3746 34.4501 43.3746 34.456 43.379 34.456C43.3864 34.456 43.3864 34.4516 43.3908 34.4486M53.5125 17.7281C50.0077 16.7121 49.3429 19.0166 48.862 20.6996C48.862 20.6996 48.859 20.7055 48.862 20.707C48.862 20.71 48.8649 20.7114 48.8693 20.7114C52.9242 20.707 50.5754 17.7811 53.508 17.7443H53.5125C53.5169 17.7443 53.5169 17.7384 53.5169 17.7355C53.5213 17.7296 53.5169 17.7281 53.5125 17.7281ZM47.9339 6.78282C47.9339 6.77545 47.9266 6.77545 47.9207 6.77987C47.9163 6.77987 47.9119 6.78723 47.9163 6.79165V6.79754C50.418 12.8761 41.5112 15.3279 35.9371 17.7281H35.9327C28.2745 20.6172 22.2018 27.6779 21.6812 36.1832C21.5041 41.1057 23.0144 45.9407 25.961 49.8851C25.9655 49.8895 25.9684 49.8895 25.9743 49.888C25.9802 49.8866 25.9831 49.8777 25.9802 49.8704C23.7749 46.4593 22.6724 42.4511 22.8225 38.3906C23.1387 29.2889 28.4378 23.0837 39.0448 19.3273C46.5264 16.6782 50.0342 15.1777 50.1606 11.7158C50.2283 9.70725 48.2619 7.18776 47.9339 6.78282ZM49.7282 48.7409L49.7238 48.7336C49.7194 48.7321 49.7135 48.7336 49.7091 48.7365V48.7409C48.1237 51.3164 44.135 52.0792 41.3818 50.3269H41.3671C41.3656 50.3313 41.3627 50.3386 41.3656 50.3416C43.782 55.4733 50.1283 52.3074 49.7282 48.7409Z" fill="#F9FBFC"/>
<path d="M43.93 2.46962C43.9256 2.4652 43.9211 2.4652 43.9167 2.46962C43.9155 2.47043 43.9145 2.47152 43.9138 2.47281C43.9131 2.47409 43.9128 2.47553 43.9128 2.47698C43.9128 2.47844 43.9131 2.47988 43.9138 2.48116C43.9145 2.48245 43.9155 2.48354 43.9167 2.48435C48.4746 8.07994 35.8703 14.9714 31.8111 18.2404C31.8066 18.2448 31.8066 18.2521 31.8066 18.2551C31.8111 18.2625 31.8213 18.2625 31.8258 18.2625C32.3302 18.0386 36.3895 15.874 40.1119 14.2719C42.193 13.3884 46.6214 11.0677 46.6729 7.40111C47.0024 4.95083 44.4094 2.83481 43.93 2.46962Z" fill="#F9FBFC"/>
<path d="M40.0237 0.184056C40.0192 0.178166 40.0148 0.182583 40.0148 0.185528C40.0104 0.187001 40.0104 0.191418 40.0148 0.197308C43.8255 5.54257 37.3851 11.5299 36.2806 12.5194C36.2806 12.5194 36.2689 12.5312 36.2806 12.5415C36.2836 12.5488 36.2939 12.5488 36.2983 12.5415C36.8277 12.1778 37.3454 11.8023 37.8528 11.4371C44.8536 6.32743 43.8402 1.8804 40.0237 0.184056ZM59.1139 25.7677C55.6135 24.7517 54.9443 27.0591 54.4649 28.7378V28.7466C54.4649 28.751 54.4693 28.7525 54.4737 28.7525C58.5271 28.7466 56.1754 25.8237 59.1139 25.7839V25.7854C59.1183 25.7854 59.1213 25.7839 59.1213 25.778C59.1213 25.7751 59.1183 25.7677 59.1139 25.7677Z" fill="#F9FBFC"/>
<path d="M63.3159 45.1402C63.3129 45.1358 63.3041 45.1402 63.3041 45.1417C59.314 51.4146 52.0147 55.7483 42.7681 55.0297C34.5805 54.4009 27.2959 47.5625 27.4842 38.9497C27.6165 32.8019 29.9874 29.9364 31.564 28.642C30.7904 30.1572 27.5268 38.3975 33.048 44.3598C36.8881 48.5049 43.2138 48.1103 46.2464 45.8382H46.2494C47.6525 46.3138 49.0629 46.6009 50.6998 46.6628C57.1887 46.8866 62.4717 43.2053 62.6423 38.4431C62.832 32.9536 57.3902 29.284 50.8498 29.0543C49.7045 29.0124 48.5579 29.0909 47.4289 29.2885C49.7056 24.1552 54.4487 23.7532 55.8371 23.8548C60.5832 24.195 62.5981 27.302 63.185 28.4521V28.4565C63.1894 28.4638 63.1938 28.4653 63.1997 28.4638C63.2085 28.4594 63.2085 28.4521 63.2085 28.4476C61.751 24.7899 58.1418 22.1276 53.8325 21.9759C48.0863 21.7771 43.2696 26.1137 43.0784 31.6651C43.0431 32.6296 43.152 33.5647 43.3799 34.4555C43.3799 34.4629 43.3844 34.4644 43.3873 34.4659C43.3961 34.4659 43.3991 34.4629 43.3991 34.457C43.5544 34.2176 43.7223 33.9866 43.9021 33.7649C45.389 32.0274 47.8657 31.0216 50.6351 31.1173C55.0282 31.272 58.758 34.273 58.6271 37.9764C58.4992 41.6812 54.5605 44.5541 50.1689 44.398C44.7874 44.211 39.881 39.1014 40.0634 33.8327C40.1085 32.569 40.3764 31.3232 40.8547 30.1528C40.8591 30.1484 40.8547 30.1455 40.8517 30.1411C40.8473 30.1411 40.8429 30.1411 40.84 30.1455C39.2295 31.7682 38.2441 33.79 38.1691 36.0105C38.0559 39.2015 40.4282 43.0448 44.3006 45.0209C40.9929 46.4228 32.5362 43.622 32.8465 34.7324C33.0671 28.4226 36.891 22.4707 42.2298 21.2441C42.2342 21.2441 42.2372 21.2367 42.2372 21.2323C42.2372 21.2279 42.2284 21.222 42.2254 21.2249C31.1875 23.1053 24.7324 30.0866 24.3971 39.5549C24.0514 49.5195 32.4053 58.2236 42.5431 58.5799C54.9944 59.0114 61.2465 50.5164 63.3203 45.1549H63.3247C63.3247 45.1476 63.3247 45.1431 63.3159 45.1402Z" fill="#F9FBFC"/>
</svg>
