<svg width="57" height="57" viewBox="0 0 57 57" fill="none" xmlns="http://www.w3.org/2000/svg">
<path d="M2.23325 49.5123V7.48769C2.23325 4.74016 4.7402 2.23322 7.48772 2.23322H49.5123C52.2713 2.23322 54.7668 4.73996 54.7668 7.48769V49.5123C54.7668 52.2598 52.2598 54.7668 49.5123 54.7668H7.48772C4.7402 54.7668 2.23325 52.2598 2.23325 49.5123ZM0.85 8.09339V48.9066C0.85 53.1245 3.88749 56.15 8.09342 56.15H48.9066C53.1244 56.15 56.15 53.1243 56.15 48.9066V8.09339C56.15 3.87564 53.1243 0.85 48.9066 0.85H8.09342C3.87568 0.85 0.85 3.87564 0.85 8.09339Z" fill="white" stroke="white" stroke-width="0.3"/>
<path d="M33.8203 26.3766L33.8207 26.3762L41.508 18.7005L41.5081 18.7005M33.8203 26.3766L23.0711 30.0233C24.0152 29.0791 24.5309 28.7156 24.5508 28.3267C24.5694 27.9624 24.1529 27.5758 23.2458 26.6687L13.8812 17.304C13.8314 17.2542 13.7812 17.2051 13.7313 17.1562C13.2442 16.6789 12.7746 16.2187 12.7746 15.289C12.7746 13.5302 13.7763 12.5285 15.5351 12.5285C16.5696 12.5285 17.4882 13.503 18.4105 14.4815C18.62 14.7038 18.8297 14.9263 19.041 15.1376L26.7285 22.825C27.6428 23.7393 28.0203 24.2762 28.4357 24.3074C28.9994 24.3497 29.6329 23.4614 31.7719 21.3225L39.4593 13.6351C39.5012 13.5932 39.5415 13.5527 39.5804 13.5137C40.3307 12.7602 40.5614 12.5285 41.8238 12.5285C43.1865 12.5285 44.2232 13.6583 44.2232 15.289C44.2232 16.3345 43.246 17.2559 42.2662 18.1798C42.0452 18.3881 41.8241 18.5966 41.6141 18.8066L41.5081 18.7005M33.8203 26.3766C33.5918 26.6063 33.3873 26.8019 33.2074 26.974C33.1777 27.0025 33.1486 27.0303 33.1202 27.0575C32.9215 27.2479 32.7531 27.4118 32.6236 27.5598C32.4946 27.7072 32.3945 27.8494 32.3421 27.9988C32.2876 28.1543 32.2878 28.3089 32.3433 28.4716C32.397 28.6286 32.5007 28.7891 32.6449 28.9654C32.7898 29.1427 32.9832 29.3449 33.2248 29.5846C33.4182 29.7764 33.639 29.9891 33.8924 30.2331C34.2852 30.6114 34.7561 31.0648 35.3232 31.6318L43.0106 39.3192C43.0507 39.3594 43.0894 39.3979 43.1266 39.435C43.4908 39.798 43.7138 40.0203 43.8563 40.2882C44.0089 40.5752 44.0732 40.9262 44.0732 41.5893C44.0732 42.8527 43.0398 43.8387 41.4627 43.8387C40.6186 43.8387 40.2032 43.4193 39.7305 42.9419C39.6952 42.9063 39.6597 42.8704 39.6236 42.8343L30.3754 33.5861C30.143 33.3537 29.9456 33.146 29.7723 32.9636C29.746 32.9359 29.7202 32.9088 29.695 32.8823C29.5049 32.6826 29.3415 32.5132 29.194 32.383C29.0472 32.2533 28.9055 32.1525 28.7565 32.0996C28.6012 32.0446 28.4468 32.0445 28.2843 32.1002C28.1276 32.1539 27.9674 32.2579 27.7912 32.4024C27.6141 32.5477 27.4119 32.7416 27.1719 32.9839C26.9841 33.1736 26.7752 33.3907 26.536 33.6394C26.1538 34.0367 25.6942 34.5143 25.1199 35.0887C25.1199 35.0887 25.1199 35.0887 25.1199 35.0887L17.4325 42.7644L17.4317 42.7652C17.3933 42.8041 17.3565 42.8416 17.3209 42.8777C16.9551 43.2497 16.732 43.4765 16.4642 43.6208C16.179 43.7745 15.8312 43.8387 15.174 43.8387C13.9111 43.8387 12.9246 42.7941 12.9246 41.2282C12.9246 40.3549 13.3527 39.9384 13.8491 39.4554C13.8751 39.43 13.9014 39.4045 13.9278 39.3787L13.929 39.3775L23.1772 30.1293C23.4044 29.9021 23.6068 29.7086 23.7841 29.5396L23.8172 29.5079C23.9799 29.3529 24.1222 29.2173 24.2407 29.0963C24.4862 28.8458 24.664 28.6267 24.6961 28.3831C24.7297 28.1282 24.6003 27.895 24.3824 27.6313C24.1922 27.4011 23.9088 27.1184 23.5357 26.7462C23.4766 26.6873 23.4154 26.6262 23.3519 26.5627L13.9872 17.198C13.9369 17.1476 13.8869 17.0985 13.8374 17.0499C13.3502 16.5714 12.9246 16.1535 12.9246 15.289C12.9246 14.4377 13.1666 13.7901 13.6014 13.3553C14.0362 12.9205 14.6838 12.6785 15.5351 12.6785C16.1122 12.6785 16.6674 13.0129 17.2366 13.5173C17.5948 13.8346 17.9412 14.2023 18.2934 14.5761C18.5039 14.7996 18.7165 15.0252 18.935 15.2436L26.6224 22.931C26.8549 23.1635 27.0523 23.3713 27.2255 23.5536C27.2518 23.5813 27.2776 23.6084 27.3028 23.6349C27.4929 23.8346 27.6563 24.004 27.8038 24.1342C27.9506 24.2639 28.0923 24.3647 28.2413 24.4176C28.3965 24.4726 28.5509 24.4727 28.7135 24.417C28.8702 24.3634 29.0304 24.2593 29.2066 24.1148C29.3837 23.9695 29.5859 23.7757 29.8259 23.5333C30.0138 23.3436 30.2227 23.1264 30.4619 22.8778C30.8441 22.4805 31.3036 22.0028 31.8779 21.4285L39.5654 13.7411C39.606 13.7005 39.6449 13.6615 39.6823 13.624C40.0446 13.2604 40.2666 13.0376 40.5331 12.8952C40.8186 12.7427 41.1666 12.6785 41.8238 12.6785C43.0867 12.6785 44.0732 13.7231 44.0732 15.289C44.0732 15.8722 43.7384 16.4305 43.2343 17.0009C42.9159 17.3612 42.5467 17.7091 42.1715 18.0627C41.9494 18.2721 41.7252 18.4834 41.5081 18.7005M33.8203 26.3766L41.5081 18.7005M13.8915 18.9709L13.8921 18.9714C14.0589 19.1366 14.3489 19.4226 14.7261 19.7946C15.7205 20.7752 17.3209 22.3533 18.8683 23.8923C19.9354 24.9536 20.9766 25.9955 21.7757 26.8091C22.1753 27.216 22.5138 27.5652 22.7645 27.831C22.9459 28.0233 23.0756 28.166 23.1503 28.2546C23.0507 28.3791 22.8771 28.5721 22.6377 28.8249C22.3369 29.1425 21.941 29.5456 21.479 30.0082C20.555 30.9335 19.3695 32.0939 18.1572 33.2792C18.076 33.3586 17.9947 33.4382 17.9133 33.5177C15.5694 35.8093 13.1775 38.148 12.4512 38.999C12.2196 39.2673 11.9782 39.6535 11.8323 40.0061L11.8323 40.0061L11.8312 40.0089C11.031 42.0578 12.1105 44.0711 13.7014 44.8119L13.7019 44.8121C15.0966 45.4554 16.161 45.2934 17.0391 44.7931C17.7204 44.405 18.2899 43.8104 18.8088 43.2685C18.9439 43.1274 19.0757 42.9898 19.2051 42.8604C19.5103 42.5581 20.2202 41.8416 21.1207 40.9326C22.009 40.036 23.0828 38.952 24.1369 37.8937C25.1989 36.8273 26.2412 35.7864 27.055 34.9875C27.462 34.588 27.8113 34.2495 28.0771 33.9988C28.2686 33.8182 28.411 33.6888 28.4996 33.614C28.6046 33.7009 28.7746 33.8555 29.003 34.0721C29.3043 34.3578 29.6968 34.7412 30.153 35.1931C31.0655 36.0968 32.2308 37.2723 33.4283 38.4844C33.8345 38.8955 34.2445 39.3109 34.6496 39.7214C36.6311 41.7292 38.4959 43.6189 39.2283 44.3076C40.3778 45.3898 41.9414 45.4229 43.2044 44.8215C44.4657 44.221 45.4564 42.9746 45.4564 41.4611C45.4564 39.7977 44.4231 38.8113 43.5344 37.9629C43.386 37.8212 43.2417 37.6834 43.1069 37.547L43.1057 37.5458C42.9569 37.3984 42.7099 37.1546 42.3902 36.8391C41.4079 35.8694 39.7399 34.2229 38.1296 32.6192C37.0625 31.5565 36.0212 30.513 35.2222 29.6984C34.8226 29.2909 34.4841 28.9412 34.2333 28.6752C34.0527 28.4834 33.9232 28.3409 33.8484 28.2521C33.9354 28.1472 34.0901 27.9772 34.307 27.7487C34.593 27.4474 34.9768 27.055 35.4293 26.5987C36.334 25.6863 37.511 24.521 38.7246 23.3234C39.1287 22.9247 39.537 22.5222 39.9406 22.1243C41.9592 20.1345 43.8625 18.2584 44.5537 17.5233L44.5538 17.5232C45.2164 16.8177 45.4728 15.8775 45.4139 14.962C45.355 14.0475 44.9811 13.1453 44.3662 12.5061L44.3661 12.506C43.7146 11.8304 42.6525 11.2953 41.7073 11.2953C40.0214 11.2953 39.0233 12.3557 38.1715 13.2607C38.0424 13.3978 37.9167 13.5314 37.7924 13.6571C37.487 13.9596 36.7773 14.676 35.8771 15.5846C34.9888 16.4813 33.915 17.5652 32.8609 18.6236C31.7989 19.69 30.7566 20.7309 29.9428 21.5297C29.5358 21.9292 29.1865 22.2677 28.9207 22.5184C28.728 22.7002 28.5851 22.8301 28.4965 22.9047C28.3725 22.8063 28.1799 22.6338 27.9272 22.3948C27.61 22.0949 27.2073 21.6996 26.7451 21.2378C25.8208 20.3145 24.6615 19.1286 23.4769 17.9156C23.4027 17.8396 23.3284 17.7635 23.254 17.6873C20.9589 15.337 18.6112 12.9329 17.7523 12.2047C17.4969 11.9859 17.0983 11.7318 16.7422 11.5965C15.228 11.0033 13.7694 11.4046 12.752 12.3856C12.0765 13.037 11.5414 14.0991 11.5414 15.0444C11.5414 16.7579 12.5374 17.692 13.4369 18.5355C13.5933 18.6822 13.7467 18.8261 13.8915 18.9709Z" fill="white" stroke="white" stroke-width="0.3"/>
</svg>
