<svg width="56" height="55" viewBox="0 0 56 55" fill="none" xmlns="http://www.w3.org/2000/svg">
<path fill-rule="evenodd" clip-rule="evenodd" d="M1.5213 21.1841H53.557V27.0912H1.5213V21.1841ZM27.6723 15.8254C26.2857 15.8254 24.993 14.6189 24.993 13.5456V8.71962C24.993 7.29377 27.3511 5.42137 29.4429 7.08225C29.8111 7.37212 30.3517 8.12421 30.3517 8.71962V13.2792C30.3517 14.6737 29.0512 15.8254 27.6723 15.8254ZM41.0534 4.26188C41.547 4.99048 42.2364 5.39785 42.7691 6.08727L46.1457 9.68326C46.7411 10.3257 47.5167 11.1169 47.5167 11.9317C47.5167 13.3027 46.3337 14.1645 45.1977 13.9921C44.0618 13.8198 43.2 12.5036 42.0013 11.5556C41.7506 11.352 41.6175 11.1953 41.3824 10.9602C40.9124 10.4823 40.7008 10.3178 40.1837 9.88693C39.7685 9.53439 39.4317 9.13485 39.04 8.75097C38.7501 8.4611 38.6717 8.43758 38.3819 8.20255C38.0998 7.97536 38.0293 7.84218 37.7316 7.64632L41.0534 4.26188ZM11.7138 13.2792C10.4446 13.2792 10.4525 13.1539 9.46533 12.1667C7.21688 9.91044 8.44686 9.23669 10.6796 7.0039C11.6119 6.06378 15.7877 1.47286 16.8139 1.47286C18.4905 1.47286 20.167 3.14157 20.167 4.82596C20.167 5.78958 17.0098 8.5786 16.242 9.3542C15.5134 10.0828 14.8867 10.7095 14.1659 11.4303C13.6489 11.9474 12.5521 13.2792 11.7138 13.2792ZM36.5565 6.73754C35.0053 6.29881 34.261 3.82317 35.6398 2.33464C37.0814 0.791277 39.7685 1.44935 40.1446 3.08673L36.5565 6.73754ZM6.88781 9.79292C6.88781 11.9552 7.06804 11.399 7.96115 12.7386C7.12288 13.3027 5.79102 14.9949 4.95275 15.6295C3.71492 16.5696 4.06746 16.9692 4.06746 19.7112C2.82964 19.7112 1.37243 19.5702 0.181614 19.8444C-0.123925 21.1684 0.048444 26.1902 0.048444 27.8902C0.048444 28.799 1.52131 28.564 2.46143 28.564V54.4487C2.46143 55.0362 3.93429 55.5533 3.93429 53.7749V28.564H51.144V53.7749C51.144 55.5533 52.6169 55.0362 52.6169 54.4487V28.564C53.557 28.564 55.0298 28.799 55.0298 27.8902C55.0298 26.1902 55.2022 21.1684 54.8967 19.8444C53.7058 19.5702 52.2486 19.7112 51.0108 19.7112C51.0108 16.7106 51.2772 17.1729 50.4389 16.2563C50.149 15.9429 50.0942 15.7784 49.773 15.4493C49.2873 14.9636 48.872 14.4465 48.3236 14.0783C50.1804 10.5685 47.6185 9.49522 46.1614 7.66198L42.6751 3.90933C42.1424 3.24341 41.7898 3.03973 41.3981 2.23279C40.1681 -0.274197 36.6505 -0.736414 34.6762 1.23784C34.4569 1.44937 33.9398 2.20146 33.7988 2.507C32.9292 4.34023 33.6578 6.76887 35.5067 7.85784C36.4938 8.44542 35.9297 7.77167 37.1597 9.01733C37.7159 9.57357 38.1625 9.8791 38.7031 10.4275L41.6174 13.1382C43.2862 14.4073 43.2 15.418 45.7775 15.418C46.5139 15.418 46.6706 15.1516 47.2503 15.0184C47.6577 15.2848 49.5302 17.2356 49.5302 17.5646V19.7112H28.2129V17.165C30.0461 17.1259 31.8324 15.2143 31.8324 13.2792V8.98599C31.8324 5.7034 27.5783 3.56462 24.8911 6.06377C24.2957 6.62001 23.5123 7.63848 23.5123 8.71962V13.5456C23.5123 15.1281 25.0792 16.7812 26.7322 17.165V19.7112H5.54816V17.2982C5.54816 16.7812 8.44685 14.3525 8.90124 13.6787C9.30862 13.953 9.31646 14.0861 9.83352 14.3525C12.7401 15.8567 14.6752 12.9267 17.1821 10.4275C18.0361 9.56573 18.8039 8.80581 19.6578 7.94403C20.9897 6.62003 21.6399 6.22831 21.6399 4.29323C21.6399 2.99273 19.5325 0 16.8139 0C15.4194 0 14.5655 1.10465 13.8291 1.84107L8.86207 6.80804C8.14132 7.5288 6.88781 8.47675 6.88781 9.79292Z" fill="white"/>
<path fill-rule="evenodd" clip-rule="evenodd" d="M20.4329 50.6879C20.4329 52.4898 19.626 53.1322 20.0255 54.8479C21.6316 55.2161 21.1694 54.6834 21.7648 51.7533C21.8744 51.1971 22.0781 50.4372 21.8588 50.069L18.6545 46.8334C17.9494 46.1283 16.7273 45.1333 16.4061 44.6554L22.65 43.7937C24.9533 43.4333 24.1542 43.5116 25.9718 39.8687C26.3557 39.1166 27.382 37.299 27.5387 36.6096C28.0871 37.0091 30.4138 42.2816 30.7977 43.0102C31.26 43.9033 32.8033 43.825 34.5504 44.0757L38.8044 44.6554C37.9583 45.9168 34.8873 48.3768 33.6651 49.7086C33.1872 50.2335 33.3047 50.6174 33.4379 51.3616C33.6494 52.5603 33.8453 53.7198 34.1116 54.8479C36.3836 55.3806 35.0204 53.4142 34.7776 50.5547C35.655 50.0925 38.5616 46.9901 39.6427 45.8933C39.8778 45.6504 42.5962 43.7858 40.0579 43.4019L32.6623 42.3443C31.683 42.2033 32.0669 42.1876 30.7586 39.5631L28.2907 34.6432C27.3428 33.3035 26.6456 35.3091 26.4654 35.6694L24.0054 40.5894C23.0652 42.4618 23.551 42.219 22.0781 42.4148C19.9785 42.6969 17.7301 43.0259 15.5286 43.3706C12.8258 43.7937 14.5336 44.8591 16.6411 46.9666C17.0876 47.4131 20.4329 50.4372 20.4329 50.6879Z" fill="white"/>
</svg>
